Inverse Dynamics Generalized Forces																																												
version=1																																												
nRows=13																																												
nColumns=45																																												
inDegrees=no																																												
endheader																																												
time	pelvis_tilt_moment	pelvis_list_moment	pelvis_rotation_moment	pelvis_tx_force	pelvis_ty_force	pelvis_tz_force	hip_flexion_r_moment	hip_adduction_r_moment	hip_rotation_r_moment	hip_flexion_l_moment	hip_adduction_l_moment	hip_rotation_l_moment	lumbar_extension_moment	lumbar_bending_moment	lumbar_rotation_moment	knee_angle_r_moment	knee_adduction_r_moment	knee_angle_r_beta_force	knee_angle_l_moment	knee_adduction_l_moment	knee_angle_l_beta_force	thoracic_extension_moment	thoracic_bending_moment	thoracic_rotation_moment	ankle_angle_r_moment	ankle_angle_l_moment	arm_flex_r_moment	arm_add_r_moment	arm_rot_r_moment	arm_flex_l_moment	arm_add_l_moment	arm_rot_l_moment	subtalar_angle_r_moment	subtalar_angle_l_moment	elbow_flex_r_moment	elbow_flex_l_moment	mtp_angle_r_moment	mtp_angle_l_moment	pro_sup_r_moment	pro_sup_l_moment	wrist_flex_r_moment	wrist_dev_r_moment	wrist_flex_l_moment	wrist_dev_l_moment
0	0	0	0	0	0	0	-43.06463648	0.154274882	3.20511436	37.81405979	-52.43218424	-3.697741584	5.452419514	6.129064705	5.171268438	33.73963468	0	0	-7.446089095	0	0	0	0	0	-2.458819445	-94.95639165	3.615138399	-1.811135647	-0.167113798	-0.994590456	-1.274455408	0.118575658	0.014304024	7.801842257	1.807798341	0.507060102	0.119621589	-0.035991801	0	0	0	0	0	0
0.010642857	0	0	0	0	0	0	-40.33814839	-0.018996025	3.268456655	40.83299546	-52.34395596	-3.214153925	5.640802942	5.513372549	5.126410917	31.69253192	0	0	-10.01469396	0	0	0	0	0	-1.882821513	-96.87511741	3.556168355	-1.825976188	-0.165602448	-1.051550709	-1.354014795	0.104228435	-0.063230279	7.351398743	1.82651725	0.499773298	0.114066124	-0.015512759	0	0	0	0	0	0
0.021285714	0	0	0	0	0	0	-38.1963257	-0.122419837	3.396647095	43.88199869	-51.82677712	-2.685738744	5.728516097	4.71145533	5.177885164	29.51171278	0	0	-12.7394418	0	0	0	0	0	-0.9781888	-98.30770282	3.499491868	-1.846518018	-0.166458075	-1.100386134	-1.440383842	0.078535719	-0.175652394	6.892691726	1.84173679	0.496595935	0.10244032	0.006572995	0	0	0	0	0	0
0.031928571	0	0	0	0	0	0	-37.41990332	-0.12225952	3.66759809	46.93954216	-50.41172305	-2.111272677	5.646718301	3.59638967	5.373092772	27.1393333	0	0	-15.71584066	0	0	0	0	0	0.466249279	-98.70219161	3.443286102	-1.876030728	-0.171225856	-1.129275625	-1.535137323	0.034408642	-0.355637686	6.430219279	1.85002456	0.501476981	0.081081057	0.0303814	0	0	0	0	0	0
0.042571429	0	0	0	0	0	0	-38.51396121	-0.010956361	4.135650448	49.90589085	-47.71185012	-1.5417416	5.395273152	2.154933747	5.686043215	24.46670094	0	0	-18.92211139	0	0	0	0	0	2.399113915	-97.56571586	3.380156266	-1.913223342	-0.179697278	-1.127921718	-1.632508823	-0.026185336	-0.616893132	5.988125574	1.849401855	0.516562929	0.050252475	0.053951976	0	0	0	0	0	0
0.053214286	0	0	0	0	0	0	-41.26604438	0.128449149	4.814593303	52.61474635	-43.49509064	-1.064270277	5.037689137	0.460966882	6.053827712	21.1438129	0	0	-22.20270993	0	0	0	0	0	4.521237472	-94.55079348	3.298119938	-1.953777335	-0.190125362	-1.093880845	-1.72252714	-0.092997108	-0.946704449	5.604424082	1.839285084	0.541815963	0.012865001	0.07386919	0	0	0	0	0	0
0.063857143	0	0	0	0	0	0	-44.795223	-0.041719513	5.713705857	54.84592225	-37.72392406	-0.776185189	4.682679171	-1.377309511	6.423522103	16.61639567	0	0	-25.29683161	0	0	0	0	0	6.382407931	-89.44441634	3.182381804	-1.991723639	-0.199775076	-1.036211328	-1.795463793	-0.151062057	-1.302058423	5.316873188	1.819659244	0.575472779	-0.027287325	0.08625089	0	0	0	0	0	0
0.0745	0	0	0	0	0	0	-48.0944615	-1.204671037	6.888289299	56.36449213	-30.5938071	-0.764687294	4.469132841	-3.257427981	6.777844515	10.44136265	0	0	-27.86819954	0	0	0	0	0	7.48882272	-82.23307672	3.018012328	-2.018862085	-0.205318865	-0.974176828	-1.845347195	-0.185114614	-1.615756918	5.148464042	1.790552055	0.614807534	-0.066563209	0.087714216	0	0	0	0	0	0
0.085142857	0	0	0	0	0	0	-50.66488985	-4.145472921	8.43957516	56.92739925	-22.52329881	-1.084630217	4.544603415	-5.100615346	7.138503008	2.612889205	0	0	-29.55355293	0	0	0	0	0	7.423983922	-73.11912496	2.794234	-2.024785747	-0.203375874	-0.930053169	-1.872216233	-0.18467453	-1.809895482	5.091440835	1.751929976	0.657066236	-0.101905296	0.076196399	0	0	0	0	0	0
0.095785714	0	0	0	0	0	0	-52.43519334	-9.401771533	10.44407028	56.31929941	-14.1390192	-1.732397269	5.026952668	-6.848874936	7.55142593	-6.46680606	0	0	-30.04335401	0	0	0	0	0	5.945837096	-62.57317716	2.509239746	-1.999625923	-0.19144308	-0.918971017	-1.883174492	-0.148692873	-1.81855238	5.097514538	1.7036944	0.700183001	-0.130971703	0.051430719	0	0	0	0	0	0
0.106428571	0	0	0	0	0	0	-53.4286936	-17.07163798	12.89650185	54.36003906	-6.21339845	-2.632725919	5.959501414	-8.452012353	8.057464789	-16.20530548	0	0	-29.15963123	0	0	0	0	0	3.030158563	-51.24118516	2.172738971	-1.938071845	-0.16891296	-0.942496887	-1.892301518	-0.087323248	-1.606655723	5.074249585	1.645708553	0.742781222	-0.15215432	0.014868197	0	0	0	0	0	0
0.117071429	0	0	0	0	0	0	-53.66238508	-26.68491276	15.68212946	50.96776512	0.44026732	-3.637892624	7.287483466	-9.856858609	8.660523423	-25.95477086	0	0	-26.92306663	0	0	0	0	0	-1.152942348	-39.81669815	1.804657535	-1.841752687	-0.137583029	-0.990708919	-1.919160032	-0.019170814	-1.1673016	4.906177872	1.578261391	0.783745842	-0.164577627	-0.030963884	0	0	0	0	0	0
0.127714286	0	0	0	0	0	0	-53.18131186	-37.26567871	18.58193784	46.31217329	5.098895797	-4.54513311	8.875499172	-11.00205052	9.312741049	-35.05788376	0	0	-23.62196075	0	0	0	0	0	-6.33035594	-28.98659645	1.431427968	-1.718909307	-0.101350438	-1.049493824	-1.985312711	0.034662533	-0.509358264	4.499708148	1.503221401	0.822582089	-0.168116065	-0.08333539	0	0	0	0	0	0
